<svg style="height: 512px; width: 512px;" xmlns="http://www.w3.org/2000/svg" viewBox="0 0 512 512"><g class="" style="" transform="translate(0,0)" id="g225"><g id="g223"><path d="M408.256 119.46L370.556 171.625L390.126 216.051L424.926 178.837L408.256 119.462Z" class="" fill="#FFFFFF" fill-opacity="1" /><path d="M 494.33,131.973 384.44,249.498 334.01,135.02 258.848,267.967 171.9,136.187 138.566,250.309 17.922,132.83 c 23.847732,77.14639 48.553022,157.6288 64.642,209.872 12.425,25.466 71.863,45.152 176.582,47.206 110.805,2.174 178.12,-17.54 189.854,-47.207 h -0.002 c 11.7516,-54.77798 30.22199,-139.25496 45.332,-210.73 z" class="" fill="#FFFFFF" fill-opacity="1" /><path d="M102.56 134.013L103.78 190.35L129.34 215.24L138.932 182.398L102.562 134.012Z" class="" fill="#FFFFFF" fill-opacity="1" /><path d="M253.145 136.923L228.662 188.283L257.617 232.168L282.539 188.088L253.144 136.922Z" class="" fill="#FFFFFF" fill-opacity="1" /><path d="M193.53 296.422C212.342 296.422 227.79 311.872 227.79 330.684C227.79 349.494 212.342 364.944 193.53 364.944C174.717 364.944 159.268 349.494 159.268 330.684C159.268 311.874 174.718 296.422 193.528 296.422Z" class="" fill="#FFFFFF" fill-opacity="1" /><path d="M324.764 296.422C343.576 296.422 359.024 311.872 359.024 330.684C359.024 349.494 343.576 364.944 324.764 364.944C305.951 364.944 290.502 349.494 290.502 330.684C290.502 311.874 305.952 296.422 324.764 296.422Z" class="" fill="#FFFFFF" fill-opacity="1" /><path d="M193.529 315.112C184.816 315.112 177.956 321.972 177.956 330.684C177.956 339.394 184.816 346.258 193.528 346.258C202.238 346.258 209.1 339.394 209.1 330.684C209.1 321.974 202.24 315.111 193.527 315.111Z" class="" fill="#FFFFFF" fill-opacity="1" /><path d="M324.763 315.112C316.051 315.112 309.19 321.972 309.19 330.684C309.19 339.394 316.052 346.258 324.764 346.258C333.476 346.258 340.338 339.394 340.338 330.684C340.338 321.974 333.476 315.111 324.764 315.111Z" class="" fill="#FFFFFF" fill-opacity="1" /></g></g></svg>