<?xml version="1.0" encoding="utf-8"?>
<svg xmlns="http://www.w3.org/2000/svg" viewBox="0 0 512 512" style="height: 512px; width: 512px;">
  <g class="" transform="matrix(1, 0, 0, 1, 0, 79.999999)" style="">
    <path d="M 189.22 102.03 L 253.063 276.03 C 256.469 285.343 256.042 295.627 251.875 304.625 C 247.71 313.615 240.146 320.584 230.845 324 L 203.405 334.063 L 263.405 336.843 C 268.175 337.066 273.315 335.183 276.845 331.969 C 280.373 328.752 282.715 323.799 282.937 319.029 L 291.937 125.529 C 292.159 120.761 290.309 115.591 287.094 112.061 C 283.878 108.531 278.926 106.191 274.156 105.968 L 189.219 102.028 L 189.22 102.03 Z M 310.22 135.28 L 301.594 319.906 C 301.133 329.81 296.761 339.127 289.438 345.812 C 282.107 352.48 272.429 355.964 262.531 355.5 L 236.471 354.28 L 305.845 377.375 C 310.375 378.882 315.857 378.482 320.125 376.345 C 324.395 374.205 327.963 370.062 329.47 365.531 L 390.625 181.721 C 392.132 177.189 391.732 171.708 389.595 167.439 C 387.455 163.169 383.312 159.569 378.781 158.064 L 310.221 135.282 L 310.22 135.28 Z M 406.594 192.845 L 347.22 371.437 C 344.091 380.841 337.358 388.618 328.5 393.062 L 328.406 393.092 C 319.563 397.489 309.34 398.208 299.969 395.092 L 279.593 388.312 L 322.905 425.342 C 326.535 428.444 331.77 430.122 336.53 429.749 C 341.29 429.375 346.148 426.909 349.25 423.279 L 475.125 275.969 C 478.227 272.339 479.905 267.134 479.531 262.374 C 479.159 257.614 476.661 252.726 473.031 249.624 L 406.595 192.844 L 406.594 192.845 Z" fill="#fff" fill-opacity="1"/>
  </g>
  <path d="M 175.893 426.162 L 43.059 409.521 C 34.426 408.355 28.355 400.401 29.521 391.763 L 56.251 193.374 C 57.411 184.741 65.376 178.676 73.991 179.836 L 204.318 197.399 C 212.945 198.565 219.01 206.524 217.85 215.151 L 191.853 414.846 C 190.595 422.001 183.236 427.514 175.893 426.162 Z M 120.355 389.178 C 125.025 386.123 127.829 381.74 128.775 376.033 C 129.711 370.4 128.418 365.416 124.909 361.088 C 121.399 356.674 116.519 353.948 110.253 352.91 C 103.909 351.853 98.323 352.837 93.503 355.866 C 88.677 358.896 85.811 363.182 84.888 368.736 C 83.99 374.122 85.313 379.156 88.858 383.818 C 92.423 388.322 97.383 391.103 103.721 392.158 C 110.071 393.215 115.614 392.22 120.355 389.178 Z M 146.333 307.935 C 151.026 305.209 155.221 302.501 158.931 299.818 C 162.634 297.134 165.846 294.232 168.566 291.093 C 171.272 287.982 173.538 284.514 175.299 280.786 C 177.059 277.046 178.347 272.754 179.149 267.921 C 180.411 260.301 180.169 253.563 178.414 247.687 C 176.664 241.817 173.721 236.747 169.581 232.467 C 165.446 228.197 160.341 224.714 154.263 222.037 C 148.193 219.354 141.459 217.405 134.089 216.178 C 126.397 214.898 118.789 214.576 111.274 215.201 C 103.758 215.815 96.644 217.448 89.928 220.08 L 83.978 255.882 C 90.791 251.632 97.748 248.778 104.833 247.315 C 111.923 245.84 118.559 245.615 124.746 246.647 C 146.213 250.739 144.186 271.545 133.506 280.677 C 127.854 285.15 122.172 289.479 117.564 292.022 C 107.084 297.936 89.874 315.147 95.022 337.167 L 126.306 342.369 C 119.196 324.612 137.969 312.907 146.334 307.935 L 146.333 307.935 Z" fill="#fff" fill-opacity="1" style="stroke-width: 1; transform-origin: 123.685px 302.927px;" transform="matrix(0.882947, -0.469472, 0.469472, 0.882947, 0.000001, -0.000001)"/>
  <g class="" style="" transform="matrix(1, 0, 0, 1, 30.319494, -22.400167)">
    <path d="M 272.824 24.318 C 257.895 24.63 247.164 27.564 240.057 32.764 L 142.899 84.91 L 88.793 158.424 C 77.42 175.98 85.518 210 121.112 188.197 L 160.012 136.846 C 209.488 94.135 310.496 113.814 262.598 199.437 C 239.068 249.019 250.141 273.227 280.358 283.387 L 294.17 237.006 C 318.12 183.181 362.672 173.496 360.854 130.101 L 468.157 137.826 L 467.291 25.781 L 272.824 24.318 Z M 218.734 127.656 C 201.324 127.356 184.249 134.554 171.814 145.031 L 132.77 196.361 C 143.483 204.867 154.183 200.32 164.895 189.998 C 177.521 196.392 187.26 186.476 195.26 166.701 C 198.577 153.212 203.47 143.664 218.735 127.656 L 218.734 127.656 Z" fill="#fff" fill-opacity="1"/>
  </g>
</svg>