<svg xmlns="http://www.w3.org/2000/svg" viewBox="0 0 512 512" style="height: 512px; width: 512px;"><g class="" transform="translate(0,-2)" style=""><g><path d="M256 91.088C144.547 91.088 53.878 179.663 53.878 288.544C53.878 397.426 144.548 486 256 486C367.453 486 458.122 397.426 458.122 288.544C458.122 179.663 367.452 91.089 256 91.089Z" class="" fill="#fff" fill-opacity="1"></path><path d="M256 466.954C155.058 466.954 72.924 386.915 72.924 288.544C72.924 190.174 155.058 110.134 256 110.134C356.942 110.134 439.076 190.174 439.076 288.544C439.076 386.915 356.942 466.954 256 466.954Z" class="" fill="#fff" fill-opacity="1"></path><path d="M255.429 288.544L383.987 388.094C352.396 426.142 305.453 448.081 256 447.908C165.533 447.908 91.97 376.415 91.97 288.543C91.97 200.862 165.236 129.488 255.417 129.191L255.417 288.543Z" class="" fill="#fff" fill-opacity="1"></path><path d="M256 72.043C233.4 72.029 210.927 75.424 189.34 82.113L189.34 56.354C189.34 39.59 202.93 26 219.694 26L292.389 26C309.12 26.046 322.659 39.623 322.659 56.354L322.659 82.114C301.072 75.424 278.6 72.028 256 72.042Z" class="selected" fill="#fff" fill-opacity="1"></path><path d="M384.939 112.753L405.056 93.005C413.853 84.363 426.328 82.542 432.934 88.922L453.337 108.67C459.931 115.05 458.098 127.228 449.349 135.87L429.911 154.915C416.967 138.83 401.833 124.638 384.951 112.753Z" class="" fill="#fff" fill-opacity="1"></path><path d="M82.435 154.51L63.044 135.464C54.247 126.822 52.331 114.74 58.842 108.479L78.875 89.1C85.351 82.84 97.731 84.756 106.527 93.398L126.573 113.086C110.03 124.805 95.179 138.744 82.435 154.511Z" class="" fill="#fff" fill-opacity="1"></path></g></g><g font-family="Arial, Helvetica, sans-serif" font-size="200" font-style="normal" font-weight="bold" text-anchor="middle" text-decoration=" rgba(0, 0, 0, 1)" class="" transform="translate(240,359)" style=""><g><text stroke="rgba(255, 255, 255, 0)" stroke-width="50"><tspan x="0" y="0">+15</tspan></text><text fill="rgba(0, 0, 0, 1)"><tspan x="0" y="0">+15</tspan></text></g></g></svg>