<?xml version="1.0" encoding="UTF-8" standalone="no"?>
<svg
   viewBox="0 0 512 512"
   style="height: 512px; width: 512px;"
   version="1.1"
   id="svg199"
   sodipodi:docname="trade.svg"
   inkscape:version="1.1.1 (3bf5ae0d25, 2021-09-20)"
   xmlns:inkscape="http://www.inkscape.org/namespaces/inkscape"
   xmlns:sodipodi="http://sodipodi.sourceforge.net/DTD/sodipodi-0.dtd"
   xmlns="http://www.w3.org/2000/svg"
   xmlns:svg="http://www.w3.org/2000/svg">
  <defs
     id="defs203" />
  <sodipodi:namedview
     id="namedview201"
     pagecolor="#ffffff"
     bordercolor="#666666"
     borderopacity="1.0"
     inkscape:pageshadow="2"
     inkscape:pageopacity="0.0"
     inkscape:pagecheckerboard="0"
     showgrid="false"
     inkscape:zoom="1.7050781"
     inkscape:cx="169.78694"
     inkscape:cy="256"
     inkscape:window-width="2560"
     inkscape:window-height="1369"
     inkscape:window-x="1912"
     inkscape:window-y="-8"
     inkscape:window-maximized="1"
     inkscape:current-layer="svg199" />
  <g
     class=""
     transform="matrix(1.0825906,0,0,0.69666467,-20.552638,83.478987)"
     id="g197">
    <g
       id="g195">
      <path
         d="m 287.03,20 c -39.133,0.48 -79.73,15.297 -117,45.938 h 80.47 v 43.188 c 52.76,-29.75 114.592,-31.588 163.938,0.03 l -18.188,9.72 64.688,50.72 -3.75,-83.314 -26.407,14.126 C 395.99,48.792 345.038,20.644 290.907,20 c -1.288,-0.015 -2.583,-0.016 -3.875,0 z"
         class=""
         fill="#fff"
         fill-opacity="1"
         id="path179" />
      <path
         d="m 19.03,84.625 v 212.75 H 231.812 V 84.625 H 19.032 Z"
         class="selected"
         fill="#fff"
         fill-opacity="1"
         id="path181" />
      <path
         d="M 69.312,110.655 H 205.78 V 249.594 H 187.062 V 129.344 H 69.313 v -18.688 z"
         class=""
         fill="#fff"
         fill-opacity="1"
         id="path183" />
      <path
         d="M 72.656,148.781 162.75,240.626 149.406,253.72 59.312,161.875 Z"
         class=""
         fill="#fff"
         fill-opacity="1"
         id="path185" />
      <path
         d="m 279.312,210.531 v 212.782 h 212.75 v -212.78 h -212.75 z"
         class=""
         fill="#fff"
         fill-opacity="1"
         id="path187" />
      <path
         d="M 329.562,236.595 H 466.031 V 375.5 H 447.345 V 255.28 h -117.78 l -0.002,-18.686 z"
         class=""
         fill="#fff"
         fill-opacity="1"
         id="path189" />
      <path
         d="m 332.906,274.689 90.125,91.875 -13.342,13.062 -90.125,-91.844 13.343,-13.092 z"
         class=""
         fill="#fff"
         fill-opacity="1"
         id="path191" />
      <path
         d="m 54.376,338.345 3.75,83.312 23.312,-12.47 c 60.927,88.637 169.99,106.485 259.625,32.814 h -80.439 v -43.188 c -52.08,29.38 -113,31.544 -162.03,1.188 L 119.03,389.063 54.375,338.345 Z"
         class=""
         fill="#fff"
         fill-opacity="1"
         id="path193" />
    </g>
  </g>
</svg>
